<svg width="160" height="91" viewBox="0 0 160 91" fill="none" xmlns="http://www.w3.org/2000/svg">
<g clip-path="url(#clip0_1854_3)">
<path d="M32.5861 49.4844C30.355 59.6072 21.2913 65.7678 12.3414 63.2435C3.39515 60.7197 -2.05101 50.4664 0.181114 40.3442C2.41115 30.2202 11.4749 24.059 20.4221 26.5827C29.3715 29.1065 34.8171 39.361 32.5861 49.4844Z" fill="#F7931A"/>
<path d="M23.7484 42.2213C24.0809 39.707 22.3885 38.3554 20.0745 37.4537L20.8251 34.0477L18.9923 33.5311L18.2615 36.8473C17.7797 36.7114 17.2848 36.5833 16.7931 36.4564L17.5291 33.1183L15.6974 32.6016L14.9462 36.0064C14.5474 35.9036 14.1559 35.8021 13.7759 35.6952L13.7779 35.6846L11.2504 34.9707L10.7628 37.185C10.7628 37.185 12.1227 37.5375 12.0939 37.5594C12.8362 37.769 12.9704 38.3247 12.9479 38.7652L12.0929 42.6453C12.144 42.6601 12.2104 42.6813 12.2834 42.7144C12.2224 42.6973 12.1571 42.6784 12.0898 42.6601L10.8912 48.0956C10.8004 48.3506 10.5702 48.7333 10.0513 48.588C10.0696 48.6181 8.71914 48.2119 8.71914 48.2119L7.80927 50.5851L10.1943 51.2576C10.638 51.3834 11.0729 51.5151 11.5009 51.6391L10.7425 55.084L12.5731 55.6007L13.3243 52.1924C13.8244 52.3459 14.3099 52.4876 14.7849 52.6211L14.0364 56.0135L15.8691 56.5302L16.6276 53.0917C19.7529 53.7607 22.103 53.4909 23.0922 50.2934C23.8893 47.7188 23.0525 46.2337 21.4082 45.2653C22.6057 44.953 23.5077 44.0619 23.7484 42.2213ZM19.5608 48.8638C18.9944 51.4383 15.1623 50.0465 13.9199 49.6976L14.9264 45.1336C16.1688 45.4844 20.1528 46.1788 19.5608 48.8638ZM20.1277 42.1841C19.6109 44.526 16.4214 43.3362 15.3868 43.0445L16.2993 38.9051C17.3339 39.1968 20.6659 39.7413 20.1277 42.1841Z" fill="white"/>
<path d="M48.6327 37.4501C49.9873 37.4501 51.1577 37.7247 52.1412 38.2638C53.1293 38.8083 53.9447 39.5417 54.5988 40.464C55.244 41.3911 55.7242 42.4746 56.0343 43.7164C56.3423 44.9618 56.4968 46.3004 56.4968 47.7336C56.4968 49.9349 56.1403 52.0146 55.4204 53.9751C54.7006 55.9385 53.7239 57.6414 52.4815 59.094C51.2402 60.5449 49.7744 61.6887 48.0841 62.5337C46.3964 63.3793 44.5615 63.8021 42.5915 63.8021C42.3367 63.8021 41.8888 63.7938 41.2561 63.779C40.6235 63.7643 39.8963 63.6904 39.082 63.5658C38.2624 63.4365 37.3959 63.2452 36.4808 62.9889C35.5662 62.7374 34.6976 62.3849 33.8796 61.9373L41.194 27.1714L47.7453 26.0229L45.1263 38.3601C45.687 38.0743 46.2518 37.8529 46.8156 37.6916C47.3799 37.5328 47.9854 37.4501 48.6327 37.4501ZM43.1375 57.9231C44.1241 57.9231 45.0538 57.6485 45.9271 57.1094C46.803 56.5697 47.5589 55.841 48.1921 54.9334C48.8253 54.0217 49.3265 52.9949 49.6919 51.8475C50.0573 50.7002 50.2421 49.5033 50.2421 48.2579C50.2421 46.728 50.016 45.5346 49.5655 44.6719C49.115 43.8127 48.2814 43.3805 47.0708 43.3805C46.6741 43.3805 46.1631 43.4661 45.5293 43.619C44.8935 43.7814 44.3245 44.1186 43.8145 44.6258L41.026 57.7276C41.194 57.7613 41.3428 57.7932 41.4697 57.8233C41.5939 57.8558 41.7312 57.8788 41.8679 57.8948C42.0125 57.9131 42.178 57.9225 42.378 57.9225C42.5779 57.9225 42.8279 57.9231 43.1375 57.9231Z" fill="white"/>
<path d="M63.2908 63.1366H57.0334L62.3178 37.9834H68.6179L63.2908 63.1366ZM66.3357 34.9187C65.4624 34.9187 64.6705 34.6247 63.9679 34.0353C63.2595 33.4496 62.9087 32.5479 62.9087 31.3327C62.9087 30.6642 63.0288 30.0371 63.2668 29.4454C63.5085 28.8549 63.8243 28.3465 64.22 27.9143C64.6151 27.4856 65.073 27.1431 65.5929 26.8851C66.1159 26.6311 66.6724 26.5042 67.2654 26.5042C68.1382 26.5042 68.9259 26.7983 69.6312 27.3876C70.3338 27.9798 70.6872 28.8815 70.6872 30.0903C70.6872 30.7611 70.5677 31.3905 70.3275 31.981C70.089 32.5715 69.7732 33.0799 69.3775 33.5122C68.9854 33.9414 68.5235 34.2827 68.0046 34.5384C67.481 34.7965 66.9266 34.9187 66.3357 34.9187Z" fill="white"/>
<path d="M74.1017 31.7165L80.6555 30.568L79.0462 37.9822H86.0651L84.7977 43.8151H77.821L75.9626 52.6134C75.7914 53.3468 75.6943 54.0318 75.6672 54.6683C75.6364 55.3078 75.7079 55.857 75.877 56.3194C76.0451 56.7829 76.3474 57.1401 76.7859 57.3929C77.2223 57.6497 77.8471 57.7791 78.6667 57.7791C79.3416 57.7791 79.9994 57.7064 80.6352 57.5623C81.2673 57.4206 81.9078 57.2234 82.5562 56.9654L83.0229 62.4191C82.1772 62.7699 81.2616 63.0716 80.275 63.3256C79.2868 63.583 78.117 63.707 76.765 63.707C74.821 63.707 73.314 63.3805 72.2402 62.7303C71.168 62.0755 70.41 61.1809 69.9564 60.0483C69.509 58.9199 69.3091 57.619 69.3649 56.1534C69.4229 54.6843 69.6186 53.1402 69.9564 51.5139L74.1017 31.7165Z" fill="white"/>
<path d="M85.7895 53.0923C85.7895 50.9258 86.0996 48.8827 86.7192 46.9701C87.3378 45.0557 88.2289 43.3816 89.3851 41.945C90.5372 40.5154 91.9409 39.3828 93.5931 38.5514C95.2374 37.7247 97.0786 37.3078 99.1076 37.3078C100.378 37.3078 101.512 37.4437 102.51 37.7159C103.512 37.9905 104.419 38.3453 105.239 38.7906L103.081 44.3412C102.517 44.0826 101.932 43.8546 101.327 43.648C100.722 43.4371 99.9825 43.3356 99.1081 43.3356C97.0196 43.3356 95.3684 44.1499 94.1396 45.7731C92.9155 47.3976 92.299 49.5842 92.299 52.327C92.299 53.9526 92.6091 55.2671 93.2313 56.2727C93.8504 57.2783 94.9942 57.7784 96.6547 57.7784C97.4742 57.7784 98.2651 57.6816 99.0225 57.4926C99.7857 57.3013 100.46 57.0604 101.053 56.7758L101.52 62.4658C100.729 62.813 99.8562 63.1265 98.8988 63.4011C97.9394 63.6662 96.7972 63.8038 95.4728 63.8038C93.7246 63.8038 92.2447 63.5145 91.0342 62.9447C89.8231 62.366 88.8224 61.5977 88.0342 60.6246C87.2418 59.6491 86.6728 58.5101 86.3209 57.2027C85.9691 55.8965 85.7895 54.5242 85.7895 53.0923Z" fill="white"/>
<path d="M113.587 63.8038C112.093 63.8038 110.796 63.5464 109.696 63.0368C108.598 62.5272 107.689 61.8121 106.971 60.885C106.251 59.9627 105.712 58.8697 105.343 57.6101C104.974 56.3512 104.797 54.9571 104.797 53.4295C104.797 51.5133 105.068 49.5978 105.618 47.6875C106.165 45.7731 106.977 44.053 108.051 42.5243C109.117 40.9931 110.432 39.7413 111.98 38.7652C113.527 37.7956 115.306 37.3078 117.304 37.3078C118.771 37.3078 120.061 37.5659 121.177 38.0755C122.287 38.5839 123.202 39.3049 123.925 40.2272C124.64 41.1543 125.183 42.2426 125.549 43.5039C125.917 44.7605 126.098 46.1581 126.098 47.6869C126.098 49.5972 125.83 51.5127 125.297 53.4289C124.765 55.3356 123.974 57.0598 122.93 58.5921C121.888 60.1209 120.585 61.3722 119.02 62.3441C117.457 63.3161 115.644 63.8038 113.587 63.8038ZM116.714 43.3362C115.786 43.3362 114.966 43.6409 114.264 44.2426C113.56 44.8514 112.968 45.6167 112.49 46.5396C112.008 47.4667 111.651 48.4776 111.409 49.5765C111.169 50.6778 111.052 51.7188 111.052 52.7079C111.052 54.304 111.279 55.547 111.727 56.4416C112.18 57.3314 112.995 57.779 114.18 57.779C115.11 57.779 115.926 57.4767 116.633 56.8685C117.333 56.2644 117.926 55.4985 118.406 54.5738C118.886 53.6515 119.246 52.6376 119.488 51.5369C119.724 50.4392 119.845 49.3923 119.845 48.405C119.845 46.813 119.619 45.5671 119.167 44.6736C118.716 43.7838 117.897 43.3362 116.714 43.3362Z" fill="white"/>
<path d="M132.917 63.1366H126.654L131.938 37.9834H138.242L132.917 63.1366ZM135.957 34.9187C135.084 34.9187 134.293 34.6247 133.591 34.0353C132.886 33.4496 132.533 32.5479 132.533 31.3327C132.533 30.6642 132.654 30.0371 132.893 29.4454C133.131 28.8549 133.449 28.3465 133.845 27.9143C134.238 27.4856 134.7 27.1431 135.219 26.8851C135.739 26.6311 136.295 26.5042 136.886 26.5042C137.761 26.5042 138.551 26.7983 139.255 27.3876C139.959 27.9798 140.315 28.8815 140.315 30.0903C140.315 30.7611 140.188 31.3905 139.952 31.981C139.715 32.5715 139.398 33.0799 139.003 33.5122C138.607 33.9414 138.15 34.2827 137.631 34.5384C137.106 34.7965 136.551 34.9187 135.957 34.9187Z" fill="white"/>
<path d="M142.751 39.1271C143.226 38.9701 143.757 38.7811 144.334 38.5756C144.913 38.3701 145.559 38.1788 146.282 38.0064C146.996 37.8287 147.803 37.6846 148.69 37.573C149.577 37.459 150.587 37.4035 151.71 37.4035C155.01 37.4035 157.285 38.4906 158.541 40.6583C159.796 42.826 160.013 45.7926 159.199 49.5529L156.321 63.1342H150.022L152.812 49.8387C152.982 49.0085 153.115 48.206 153.214 47.4218C153.314 46.6447 153.308 45.9597 153.192 45.3669C153.08 44.7811 152.818 44.3016 152.412 43.9302C151.999 43.5647 151.375 43.3811 150.529 43.3811C149.713 43.3811 148.883 43.4803 148.036 43.6716L143.934 63.1336H137.633L142.751 39.1271Z" fill="white"/>
</g>
<defs>
<clipPath id="clip0_1854_3">
<rect width="160" height="90.4949" fill="white"/>
</clipPath>
</defs>
</svg>
