<svg width="160" height="80" viewBox="0 0 160 80" fill="none" xmlns="http://www.w3.org/2000/svg">
<g clip-path="url(#clip0_6629_8)">
<path d="M47.1445 45.0629V17.2466H53.5274C57.3124 17.2466 59.9552 19.8446 59.9552 24.5254V30.9084C59.9552 33.7079 59.0594 35.7236 57.4692 36.8882L60.0672 45.0405H54.8264L53.0571 38.2768H52.0269V45.0629H47.1445ZM52.0269 21.9274V33.6632H52.9003C53.8858 33.6632 55.14 33.3944 55.14 31.0204V24.5702C55.14 22.241 53.953 21.9274 52.9003 21.9274H52.0269Z" fill="#EB1C24"/>
<path d="M73.1467 21.9722H67.1668V28.7807H71.7357V33.0361H67.1668V40.3597H73.1467V45.0405H62.3068V17.2466H73.1467V21.9722Z" fill="#EB1C24"/>
<path d="M86.0023 45.0629H75.7895V17.2466H80.6719V40.3821H86.0023V45.0629Z" fill="white"/>
<path d="M87.3685 38.6797V23.7413C87.3685 19.7548 90.0112 17 93.841 17C97.626 17 100.314 19.7548 100.314 23.7413V38.6797C100.314 42.6215 97.626 45.3763 93.841 45.3763C90.0112 45.3763 87.3685 42.6215 87.3685 38.6797ZM92.2285 23.5398V38.8365C92.2285 40.4938 93.1243 40.6954 93.841 40.6954C94.5129 40.6954 95.4088 40.4938 95.4088 38.8365V23.5398C95.4088 21.8824 94.5801 21.6809 93.841 21.6809C93.102 21.6809 92.2285 21.8824 92.2285 23.5398Z" fill="white"/>
<path d="M110.705 40.3597H106.719L105.98 45.0405H101.142L106.137 17.2466H111.333L116.26 45.0629H111.422L110.705 40.3597ZM107.346 36.2387H110.101L108.757 25.7124L107.346 36.2387Z" fill="white"/>
<path d="M117.917 45.0629V17.2466H124.39C128.22 17.2466 130.862 19.8446 130.862 24.5254V37.8513C130.862 42.5321 128.22 45.0629 124.39 45.0629H117.917ZM122.8 21.9274V40.4045H123.785C124.77 40.4045 126.025 40.1357 126.025 37.8065V24.5702C126.025 22.241 124.838 21.9274 123.785 21.9274H122.8Z" fill="white"/>
<path d="M144.435 21.9722H138.455V28.7807H143.024V33.0361H138.455V40.3597H144.435V45.0405H133.595V17.2466H144.435V21.9722Z" fill="white"/>
<path d="M147.077 45.0629V17.2466H153.55C157.38 17.2466 160.022 19.8446 160.022 24.5254V37.8513C160.022 42.5321 157.38 45.0629 153.55 45.0629H147.077ZM151.96 21.9274V40.4045H152.945C153.931 40.4045 155.185 40.1357 155.185 37.8065V24.5702C155.185 22.241 153.998 21.9274 152.945 21.9274H151.96Z" fill="white"/>
<path d="M61.7021 57.6721H64.1881V60.5836C64.1881 61.3227 63.9642 61.9274 63.5163 62.3977C63.0683 62.8681 62.4636 63.1144 61.7469 63.1144C61.0303 63.1144 60.4255 62.8681 59.9776 62.3977C59.5297 61.9274 59.3057 61.3227 59.3057 60.5836V53.8871C59.3057 53.1256 59.5297 52.5209 59.9776 52.0282C60.4255 51.5579 61.0303 51.3115 61.7469 51.3115C62.4412 51.3115 63.0235 51.5579 63.4939 52.0282C63.9642 52.4985 64.1881 53.1032 64.2105 53.8423H63.0459C63.0459 53.3944 62.9339 53.0584 62.6876 52.8345C62.4412 52.5881 62.1501 52.4761 61.7693 52.4761C61.3886 52.4761 61.0974 52.5881 60.8511 52.8345C60.6047 53.0808 60.4927 53.4168 60.4927 53.8423V60.606C60.4927 60.83 60.5375 61.054 60.6271 61.2779C60.7167 61.5019 60.8735 61.6811 61.0974 61.793C61.3214 61.9274 61.5454 61.9722 61.7693 61.9722C62.1501 61.9722 62.4412 61.8602 62.6876 61.6139C62.9339 61.3675 63.0459 61.0316 63.0459 60.606V58.7023H61.7245V57.6721H61.7021Z" fill="white"/>
<path d="M79.0369 63.0022L78.5666 60.4042H76.103L75.6103 63.0022H74.4233L76.7301 51.4009H77.9619L80.224 63.0022H79.0369ZM77.3572 53.5285L76.2822 59.374H78.4322L77.3572 53.5285Z" fill="white"/>
<path d="M93.4155 61.9721L91.9597 55.6563V63.0023H90.8175V51.4233H91.9597L93.841 59.9116L95.7447 51.4233H96.8869V63.0023H95.7223V55.6339L94.2442 61.9721H93.4155Z" fill="white"/>
<path d="M109.384 51.4233V63.0023H108.219V51.4233H109.384Z" fill="white"/>
<path d="M125.644 51.4233V63.0023H124.569L121.881 54.962V63.0023H120.717V51.4233H121.792L124.479 59.598V51.4233H125.644Z" fill="white"/>
<path d="M139.239 57.6721H141.725V60.5836C141.725 61.3227 141.501 61.9274 141.053 62.3977C140.605 62.8681 140 63.1144 139.283 63.1144C138.567 63.1144 137.962 62.8681 137.514 62.3977C137.066 61.9274 136.842 61.3227 136.842 60.5836V53.8871C136.842 53.1256 137.066 52.5209 137.514 52.0282C137.962 51.5579 138.567 51.3115 139.283 51.3115C139.978 51.3115 140.56 51.5579 141.03 52.0282C141.501 52.4985 141.725 53.1032 141.747 53.8423H140.582C140.582 53.3944 140.47 53.0584 140.224 52.8345C139.978 52.5881 139.686 52.4761 139.306 52.4761C138.925 52.4761 138.634 52.5881 138.387 52.8345C138.141 53.0808 138.029 53.4168 138.029 53.8423V60.606C138.029 60.83 138.074 61.054 138.163 61.2779C138.253 61.5019 138.41 61.6811 138.634 61.793C138.858 61.9274 139.082 61.9722 139.306 61.9722C139.686 61.9722 139.978 61.8602 140.224 61.6139C140.47 61.3675 140.582 61.0316 140.582 60.606V58.7023H139.261V57.6721H139.239Z" fill="white"/>
<path d="M9.72005 36.8657L16.8421 29.766L18.3651 28.2655V17.0225L4.03135 31.289C3.69541 31.5801 3.38186 31.8937 3.09071 32.2296C1.70213 33.7974 0.694289 35.7459 0.246361 37.8959C0.0895857 38.7022 0 39.5533 0 40.4267C0 41.3002 0.0895857 42.1288 0.246361 42.9351C0.425532 43.831 0.716685 44.682 1.07503 45.4883C2.73236 49.2061 6.18141 51.8713 10.2352 52.3416V55.8131L18.3427 63.8982V50.0796V40.6731L15.4087 43.607C14.0426 44.9732 12.0269 45.2419 10.3919 44.4581C9.9664 44.2565 9.56327 43.9654 9.20493 43.607L9.18253 43.5846C7.4804 41.8825 7.4804 39.1053 9.18253 37.4032L9.72005 36.8657Z" fill="#EB1C24"/>
<path d="M29.2721 36.8657L22.15 29.766L20.6271 28.2655V17.0225L34.9384 31.289C35.2743 31.5801 35.5879 31.8937 35.879 32.2296C37.2676 33.7974 38.2754 35.7235 38.7234 37.8959C38.8802 38.7022 38.9697 39.5533 38.9697 40.4043C38.9697 41.2554 38.8802 42.1064 38.7234 42.9127C38.5442 43.8086 38.2531 44.6596 37.8947 45.4659C36.2374 49.1837 32.7883 51.8489 28.7346 52.3192V55.7907L20.6271 63.8758V50.0572V40.6507L23.561 43.5846C24.9272 44.9508 26.9429 45.2195 28.5778 44.4357C29.0033 44.2341 29.4065 43.943 29.7648 43.5846L29.7872 43.5622C31.4893 41.8601 31.4893 39.0829 29.7872 37.3808L29.2721 36.8657Z" fill="white"/>
</g>
<defs>
<clipPath id="clip0_6629_8">
<rect width="160" height="80" fill="white"/>
</clipPath>
</defs>
</svg>
