<?xml version="1.0" standalone="no"?>
<!DOCTYPE svg PUBLIC "-//W3C//DTD SVG 20010904//EN"
 "http://www.w3.org/TR/2001/REC-SVG-20010904/DTD/svg10.dtd">
<svg version="1.0" xmlns="http://www.w3.org/2000/svg"
 width="512.000000pt" height="512.000000pt" viewBox="0 0 512.000000 512.000000"
 preserveAspectRatio="xMidYMid meet">
<metadata>
Created by potrace 1.11, written by Peter Selinger 2001-2013
</metadata>
<g transform="translate(0.000000,512.000000) scale(0.100000,-0.100000)"
fill="#000000" stroke="none">
<path d="M2385 4129 c-28 -11 -85 -49 -113 -76 -7 -6 -24 -35 -38 -64 -68
-135 -7 -298 136 -362 118 -53 271 1 337 118 24 43 28 61 28 130 0 63 -5 89
-22 121 -24 45 -76 94 -126 120 -39 21 -160 28 -202 13z"/>
<path d="M4775 3986 c-79 -30 -116 -61 -156 -131 -30 -54 -33 -181 -5 -238 86
-174 329 -204 449 -55 43 55 57 95 57 173 0 101 -45 178 -137 232 -51 29 -156
39 -208 19z"/>
<path d="M4703 3354 c-67 -106 -219 -319 -294 -411 -258 -317 -506 -505 -736
-559 -60 -14 -210 -13 -266 2 -286 75 -540 352 -782 857 -37 76 -68 137 -70
135 -1 -2 -5 -37 -9 -78 -9 -112 -16 -169 -26 -225 -5 -27 -12 -69 -15 -91
-12 -85 -75 -312 -113 -406 -79 -196 -197 -350 -326 -427 -185 -110 -443 -108
-731 7 -190 75 -439 223 -685 406 -52 38 -97 73 -100 76 -12 13 -80 61 -80 56
0 -3 50 -90 111 -193 62 -103 125 -213 142 -243 16 -30 36 -62 43 -71 8 -8 14
-18 14 -22 0 -3 17 -34 39 -69 21 -35 177 -299 346 -588 169 -289 311 -529
315 -533 4 -5 59 27 121 71 404 284 832 460 1339 552 61 11 139 22 173 26 34
3 65 8 68 10 42 24 767 24 809 -1 3 -1 32 -6 65 -10 33 -3 78 -10 100 -15 22
-5 51 -11 65 -13 14 -3 56 -12 94 -21 38 -9 70 -15 71 -14 2 3 59 283 69 338
2 14 13 70 24 125 12 55 35 172 52 260 33 166 36 183 45 225 2 14 7 36 9 50 2
14 11 59 20 100 8 41 18 89 21 105 2 17 7 41 10 55 27 136 95 480 99 500 2 14
9 44 14 68 5 23 8 42 6 42 -2 0 -25 -34 -51 -76z"/>
<path d="M185 3207 c-118 -47 -185 -147 -180 -267 3 -69 23 -117 69 -168 117
-129 333 -108 426 43 24 39 30 61 35 130 7 98 -63 212 -153 251 -48 21 -158
27 -197 11z"/>
</g>
</svg>
